/* XPM */
static char *_8951_712d5dab8ee0260784f43fd1f693cb6adb1e1d1c371425d0b9852bf2da71f504[] = {
/* columns rows colors chars-per-pixel */
"64 64 134 2 ",
"   c #9D2F61",
".  c #9C2D6E",
"X  c #9C3774",
"o  c #9E3A71",
"O  c #A13A65",
"+  c #A4366A",
"@  c #A53D6E",
"#  c #AF2F75",
"$  c #A52D78",
"%  c #AC2C7B",
"&  c #A73271",
"*  c #AE3174",
"=  c #A23C72",
"-  c #AA3D75",
";  c #A4377D",
":  c #AB357C",
">  c #A63C7C",
",  c #AB3C7D",
"<  c #B53673",
"1  c #B13E77",
"2  c #B4367D",
"3  c #B33C7D",
"4  c #B93B7C",
"5  c #A54175",
"6  c #AD4274",
"7  c #AC417B",
"8  c #B14175",
"9  c #B4437E",
"0  c #BD457D",
"q  c #C1407C",
"w  c #AE2E83",
"e  c #B22D87",
"r  c #B52F88",
"t  c #A73380",
"y  c #AC3C82",
"u  c #B53485",
"i  c #B83586",
"p  c #B33C84",
"a  c #BA3B85",
"s  c #B6358B",
"d  c #BA358B",
"f  c #B53D8A",
"g  c #BB3C8B",
"h  c #BE3790",
"j  c #BD3C91",
"k  c #C33F82",
"l  c #C13D8E",
"z  c #C13D93",
"x  c #C53E98",
"c  c #AD4281",
"v  c #B44283",
"b  c #BB4484",
"n  c #B64985",
"m  c #B6428A",
"M  c #BC428C",
"N  c #BB498A",
"B  c #BD4292",
"V  c #C24484",
"C  c #C34A83",
"Z  c #C94C87",
"A  c #C2448C",
"S  c #C9458C",
"D  c #C54A8C",
"F  c #CC4C8D",
"G  c #D0528D",
"H  c #C34393",
"J  c #C94595",
"K  c #C44992",
"L  c #CB4B94",
"P  c #C54399",
"I  c #CB459B",
"U  c #C5499A",
"Y  c #CD4B9A",
"T  c #D14E93",
"R  c #D14D9E",
"E  c #CD5194",
"W  c #CF5298",
"Q  c #D15695",
"!  c #DB5A95",
"~  c #D3519A",
"^  c #DB5599",
"/  c #D7589F",
"(  c #DC5B9D",
")  c #E15B9D",
"_  c #E1619B",
"`  c #CC46A1",
"'  c #CE49A1",
"]  c #D34CA4",
"[  c #D94FA5",
"{  c #D64EAA",
"}  c #D552A3",
"|  c #DA56A3",
" . c #DC5AA3",
".. c #D651AA",
"X. c #DC54AB",
"o. c #D658AB",
"O. c #DD5AAB",
"+. c #DE54B1",
"@. c #DE59B4",
"#. c #E15DA4",
"$. c #E157AE",
"%. c #E15CAD",
"&. c #E156B4",
"*. c #E45CB4",
"=. c #E95CB7",
"-. c #E65CBA",
";. c #E95EBA",
":. c #DD60A6",
">. c #DB63A8",
",. c #E263A2",
"<. c #E362AC",
"1. c #EA66AD",
"2. c #ED6CAE",
"3. c #E562B2",
"4. c #E963B5",
"5. c #EC6BB4",
"6. c #E761BB",
"7. c #EB62BB",
"8. c #F06CB2",
"9. c #F065BE",
"0. c #F26EBF",
"q. c #F872B7",
"w. c #F473BC",
"e. c #EE64C1",
"r. c #F165C2",
"t. c #F26AC2",
"y. c #F569C9",
"u. c #FA6ECA",
"i. c #F673C4",
"p. c #FA76C7",
"a. c #F778C6",
"s. c #FA71CC",
"d. c #FD74D1",
"f. c black",
/* pixels */
"f.f.f.f.f.f.f.f.f.f.f.f.f.f.f.f.f.f.f.f.f.f.f.f.f.f.f.f.f.f.f.f.f.f.f.f.f.f.f.f.f.f.f.f.f.f.f.f.f.f.f.f.f.f.f.f.f.f.f.f.f.f.f.f.",
"f.f.f.f.f.f.f.f.f.f.f.f.f.f.f.f.f.f.f.f.f.f.f.f.f.f.f.f.f.f.f.f.f.f.f.f.f.f.f.f.f.f.f.f.f.f.f.f.f.f.f.f.f.f.f.f.f.f.f.f.f.f.f.f.",
"f.f.f.f.f.f.f.f.f.f.f.f.f.f.f.f.f.f.f.f.f.f.f.f.f.f.f.f.f.f.f.f.f.f.f.f.f.f.f.f.f.f.f.f.f.f.f.f.f.f.f.f.f.f.f.f.f.f.f.f.f.f.f.f.",
"f.f.f.f.f.f.f.f.f.f.f.f.f.f.f.f.f.f.f.f.f.f.f.f.f.f.f.f.f.f.f.f.f.f.f.f.f.f.f.f.f.f.f.f.f.f.f.f.f.f.f.f.f.f.f.f.f.f.f.f.f.f.f.f.",
"f.f.f.f.f.f.f.f.f.f.f.f.f.f.f.f.f.f.f.f.f.f.f.f.f.f.f.f.f.f.f.f.f.f.f.f.f.f.f.f.f.f.f.f.f.f.f.f.f.f.f.f.f.f.f.f.f.f.f.f.f.f.f.f.",
"f.f.f.f.f.f.f.f.f.f.f.f.f.f.f.f.f.f.f.f.f.f.f.f.f.f.f.f.f.f.t ; f.f.f.f.f.f.f.n f.f.f.f.f.f.f.f.f.f.f.f.f.f.f.f.f.f.f.f.f.f.f.f.",
"f.f.f.f.f.f.f.f.f.f.f.f.f.f.f.f.f.f.f.f.f.f.f.f.f.f.f.f.f.c . $ y f.f.f.f.7 p m f.f.f.f.f.f.f.f.f.f.f.f.f.f.f.f.f.f.f.f.f.f.f.f.",
"f.f.f.f.f.f.f.f.f.f.f.f.f.f.f.f.f.f.f.f.f.f.f.f.f.f.f.f.f.f.= a m 9 f.f.f.f z A f.f.f.f.f.f.f.f.f.f.f.f.f.f.f.f.f.f.f.f.f.f.f.f.",
"f.f.f.f.f.f.f.f.f.f.f.f.f.f.f.f.f.f.f.f.f.f.f.f.f.f.f.f.f.f.7 A V 4 f.f.p H ] I , f.f.c f f.f.f.f.f.f.f.f.f.f.f.f.f.f.f.f.f.f.f.",
"f.f.f.f.f.f.f.f.f.f.f.f.f.f.f.f.f.f.f.f.f.f.f.f.f.f.f.f.f.f.f.z L A f.f H / 4. .V b M g g f.f.f.f.f.f.f.f.f.f.f.f.f.f.f.f.f.f.f.",
"f.f.f.f.f.f.f.f.f.f.f.f.f.f.f.f.f.f.f.f.f.f.f.f.f.f.f.v - f.f.g T J z z I O.#.( R ] ] J g f.f.f.f.f.f.f.f.f.f.f.f.f.f.f.f.f.f.f.",
"f.f.f.f.f.f.f.f.f.f.f.f.f.f.f.f.f.f.f.f.f.f.f.f.f.f.f.p < p y H #. .I I z H A L J I I v 7 f.f.f.f.f.f.f.f.f.f.f.f.f.f.f.f.f.f.f.",
"f.f.f.f.f.f.f.f.f.f.f.f.f.f.f.f.f.f.f.f.f.f.f.f.f.f.f.a 2 H X.*.9.*.I j B f.f.f.f.p 7 @ f.f.f.f.f.f.f.f.f.f.f.f.f.f.f.f.f.f.f.f.",
"f.f.f.f.f.f.f.f.f.f.f.f.f.f.f.f.f.f.f.f.f.f.f.f.f.f.f.f.p x { 6.t.-.K f.f.f.f.f.f.f.f.f.f.f.f.f.f.f.f.f.f.f.f.f.f.f.f.f.f.f.f.f.",
"f.f.f.f.f.f.f.f.f.f.f.f.f.f.f.f.f.f.f.f.f.f.f.f.f.f.f.f.f.f f J 4.<.U f.f.f.f.f.f.f.f.f.f.f.J g f.f.f.f.f.f.f.f.f.f.f.f.f.f.f.f.",
"f.f.f.f.f.f.f.f.f.f.f.f.f.f.f.f.f.f.f.f.f.f.f.f.b 8 c f.f.f.f.5 ( _ F f.f.f.f.f.K j m f.f.D a p y f.f.f.f.f.f.f.f.f.f.f.f.f.f.f.",
"f.f.f.f.f.f.f.f.f.f.f.Y I f.f.f.f.f.f.f.f.f.f.M a 4 u l z M 1 n ( ,.Z f.f.f.f.f.z z v f.f.I T D , f.f.f.f.f.f.f.f.f.f.f.f.f.f.f.",
"f.f.f.f.f.f.f.f.f.f.f.z i H f.f.f.f.f.f.f.f.f.f.p a s x I Y ' O.1.<.F - f.f.f.M J Y > f.f.' $.3.P H M f.f.f.f.f.f.f.f.f.f.f.f.f.",
"f.f.f.f.f.f.f.f.f.f.f.z z M f.f.f.f.f.f.f.f.f.f.f.f.f P Y I I } :.<.~ M f.f.f.A } ..c f.f.P *.t.*.] P f.f.f.f.f.f.f.f.f.f.f.f.f.",
"f.f.f.f.f.f.0 v m f.g A Y N f.f.f.f.f.f.f.f.f.f.f.f.f.f.f.f.H D K L W P f.f.v L <.*.B y p I 4.0.3.] B f.f.f.f.f.f.f.f.f.f.f.f.f.",
"f.f.f.f.f.H 2 4 i z I X.X.m f.f.f.f.f.f.f.f.f.f.f.f.f.f.f.f.f.f.f.v A l f.f.j ..e.7.-.&.&.%.5.1.K p v f.f.f.f.f.f.f.f.f.f.f.f.f.",
"f.f.f.f.f.M g 4 g ] =.r.*.I , f.f.f.f.f.f.7 = c f.f.f.f.f.W f.f.f.M a a g f I X.*.-.&.&.O.*.<.| f f.f.f.f.f.f.f.f.f.f.f.f.f.f.f.",
"f.f.f.f.f.f.f.f.v X.e.=.O.Y a N f.f.f.f.f.g g z z B m f.j h I f.f.f.a J +.X.} L K K D D B U P J j y f.f.f.f.f.f.f.f.f.f.f.f.f.f.",
"f.f.f.f.f.f.f.f.M ..O.Y H j a a f.f.f.f.f.j l J I Y A y m J L f.f.f.3 J %.<.J g m f.f.f.f.f.j g j g g M f.f.f.f.f.f.f.f.f.f.f.f.",
"f.f.f.f.f.f.f.g j J A p f.y : w u z f.f.f.f.m z P F ~ T ( ! Z f.f.f.f.A <.( D f.f.f.f.f.f.f.f.B g M A M f.f.f.f.f.f.f.f.f.f.f.f.",
"f.f.f.f.f.f.f i x A 6 f.f.f.f.t % 2 K f.f.f.f.f.B b S ' %.) C f.f.f.9 L 1.:.7 f.f.f.f.f.f.f.f.f.p u 2 f f.f.f.f.f.f.f.f.f.f.f.f.",
"f.f.f.f.f.f.v i z a f.f.f.f.f., : A D f.f.f.f.f.f.f.f.z { } K f.f.p D ^ 5.<.B v > 5 f.f.f.f.f.f.f.; X f.f.f.f.f.f.f.f.f.f.f.f.f.",
"f.f.f.f.f.f.f.z f m f.f.f.f.f.y 7 K J H f.f.f.f.f.f.f.p P J J H H P R $.<.O.' Y H f f.f.f.f.f.f.f.f.f.f.f.f.f.f.f.f.f.f.f.f.f.f.",
"f.f.f.f.f.f.f.f.f.f.f.f.I l S J J ~ A P f.f.f.f.f.f.f.f.g j I @.@.{ ' J L E J j d j f.f.f.f.f.f.f.f.f.f.f.f.f.f.f.f.f.f.f.f.f.f.",
"f.f.f.f.f.f.f.f.f.f.f.f.A 2 P I ~ } H s V f.f.f.f.U f.f.f.m I -.&.Y p 5 f.f.f.y M f.f.f.f.f.f.f.f.f.f.f.f.f.f.f.f.f.f.f.f.f.f.f.",
"f.f.f.f.f.f.f.f.f.f.f.f.g v m B H H f a 2 i f.f.B g P f.f.f.H %.#.D f.f.f.f.f.f.f.f.f.f.f.f.f.f.f.f.f.f.f.f.f.f.f.f.f.f.f.f.f.f.",
"f.f.f.f.f.f.f.f.f.f.f.f.j u g b B U v p w w g j I ` H f.f.f.P -.<.M f.f.f.f.f.f.f.f.= 7 v f.f.f.f.f.f.f.f.f.f.f.f.f.f.f.f.f.f.f.",
"f.f.f.f.f.f.f.f.f.f.f.f.f.K j ; f.f.f.f.3 u Y <.3.X.M f.f.m ' *.X.j f.f.f.f.f.f.f.5 4 q , f.f.f.f.f.f.f.f.f.f.f.f.f.f.f.f.f.f.f.",
"f.f.f.f.f.f.f.f.f.f.f.f.f.f.f.f.f.f.f.f.f.b ( w.q.*.j f.f.g } 3.] g p A D K K E K J z a & n f.f.f.f.f.f.f.f.f.f.f.f.f.f.f.f.f.f.",
"f.f.f.f.f.f.f.f.f.f.f.f.f.f.f., y f.f.f.> m 3.a.a.*.I I J L #.^ 4 < < V F W Y Y L P j a f.f.f.f.f.f.f.f.f.f.f.f.f.f.f.f.f.f.f.f.",
"f.f.f.f.f.f.f.f.f.f.f.f.f.f.M u s H D V A ] &.-.6.+.} ' { X.#.D 6 f.M J D K P H v y f f.f.f.f.f.f.f.f.f.f.f.f.f.f.f.f.f.f.f.f.f.",
"f.f.f.f.f.f.f.f.f.f.f.f.f.f.H z I ' I L G Y I I K H B P P X.+.K f.f.f.f.f.f.f.f.f.f.f.f.f.f.f.f.f.f.f.f.f.f.f.f.f.f.f.f.f.f.f.f.",
"f.f.f.f.f.f.f.K z B f.f.f.f.H P x l H F C b v f.f.f.f.f.- J ] C f.f.f.f.f.f.f.f.f.f.f.f.f.f.f.f.f.f.f.f.f.f.f.f.f.f.f.f.f.f.f.f.",
"f.f.f.f.f.f.f.H A M f.f.f.f.f.f.f.7 f.f.f.f.f.f.f.f.f.f.f.A R D f.f.f.B 9 6 f.f.f.m g m f.f.f.f.f.f.f.f.f.f.f.Y I f.f.f.f.f.f.f.",
"f.f.b 9 f.f.f.Y I Y f.f.f.f.f.f.f.f.f.f.f.f.P g f f.f.f.f.b I H f.f.f.P H v f.f.f.g A M f.f.f.f.f.f.f.f.f.f.H i z f.f.f.f.f.f.f.",
"f.V i i f.f.f.I R L f.f.M H H f.f.y p f.f.f.x g j H I J V L { I M f.f.I ' H , f.f D ~ H X f.f.f.f.f.f.f.f.f.M z z f.f.f.f.f.f.f.",
"f.M x x f 7 f.D F D f.f.g j x B p d e g f.f.A g H J F L F W } ] B f.f.U ..{ s f.f ..4...H x H v f.f.f.f.f.f.N Y J g f.v b 9 f.f.",
"f.M ] X.] m f.b Y P f.f.f M } &...J r f f.f.f.g H Y D Z 0 N L R H f.f.v [ &.B y J ;.r.&.{ Y A 2 c f.f.f.f.f.v O.X.I z i 4 2 H f.",
"f.D I *.*.I k D ] U f.f.f.b  .%./ l a f.f.f.f.f.f.f.f.f.f.f.q W H f.f.7 U &.*. .3.%.| L K J l g v f.f.f.f., P -.9.*.] g 4 g M f.",
"f.f.I { +.] D ~ { A f.f.f.7 } I H v f.f.f.f.f.f.f.f.f.f.f.f.V ~ I : f.f.B -.t.9.X.J V 0 f.f.f.f.f.f.f.f.b a Y X.4.e.X.v f.f.f.f.",
"f.f.B B H 0 V L } Y D 7 f.p Y I f.f.f.f.5 B f.f.f.f p m B K L #.+.j y f.f O.y.e.I p f.f.f.f.f.f.f.f.f.f.g a j H Y X.X.g f.f.f.f.",
"f.f.f.f.f.f.f.A O.<.| A M Y ] J f.f.f.f.3 a f.f.j s z I ` Y G ( *...y f.7  .p.*.B f.f.f.f.f.f.f.f.f.H u w : , f.y D I z g f.f.f.",
"f.f.f.f.f.f.p M } &.X.~ } %.#.J f f.f.- 2 a f.f.M j z z j M A V X.&.H = D <.i.3.A v M H J N f.f.f.J 2 % t f.f.f.f.8 A x i p f.f.",
"f.f.6 0 A z 4 a l I N M ' =.8. .J M f A S H f.f.f.f.f.g m f.f.> P &.6.&.&.&.&.X.~ L Y T L z J f.f.D A : f.f.f.f.f.f.p z i p f.f.",
"f.9 0 D F V a a m f.f.f.p @.t.i.*.&.@.3.| N f.f.f.f.f.f.f.f.f.f.m -.y.7.&.I I ' R Y Y H M g f.f.f.J K 7 f.f.f.f.f.f.m g z f.f.f.",
"f.f.3 H D p v f.f.f.f.f.f X.*.*.3.-.r.t.*.M f.f.f.f.f.f.f.f.f.f.c >.q.1.J , f.f.f.f.f.= 2 i f.f.P A ~ J J A g I f.f.f.f.f.f.f.f.",
"f.f.> f p f.f.f.f.f.f.g j I J A M I &.r.O.v f.f.f.y p M 6 f.f.f.m ,.q.<.n f.f.f.f.f.f.f.u w l A g H } ~ I x 4 A f.f.f.f.f.f.f.f.",
"f.f.f.f.f.f.f.f.f.f.s r d l 1 f.f.g Y -.-.n f.f.f., , 4 k A B m E 6.t.3.V p f.f.f.f.f.f.p i L A i f H H B m v f.f.f.f.f.f.f.f.f.",
"f.f.f.f.f.f.f.f.f.g % % g m f.f.f.f.g &.1.D = f.f.f.@ 4 S X.&.&.3.e.-.O.D 2 4 H f.f.f.f.f.A E S p f.f.f.f.f.f.f.f.f.f.f.f.f.f.f.",
"f.f.f.f.f.f.f.f.p u # u f.f.f.f.f.f H 4.1. .b , f.f.f.- a ..r.r.;.} H A A a % i f.L v f.f.D L D f.f.f.f.f.f.f.f.f.f.f.f.f.f.f.f.",
"f.f.f.f.f.f.f.m j a 3 f.f.f.f.H u u J X.*. .Y y f.f.f.f.7 J =.;.' p = f.f.f.3 M f.g 2 @ f.I R g f.f.y u H f.f.f.f.f.f.f.f.f.f.f.",
"f.f.f.f.f.f.v s d i f f.f.f.f.m p g A J H Y ~ v f.f.f.f.f.B O.:.v f.f.f.f.f.f.f.f.g 0 b J I { H M g % # S f.f.f.f.f.f.f.f.f.f.f.",
"f.f.f.f.f.f.f.p g m f.f.f.f.f.f.f.f.f.f.f.H E M f.v f.f.f.K &.<.0 O - f.f.f.f.f.f.g V Q #.<.X.~ R l u A f.f.f.J I f.f.f.f.f.f.f.",
"f.f.f.f.f.f.f.f.f.f.f.f.f.v p f f.f.f.f.f.M T J > p M B f.P *.w.,.G V a c f.f.f.f.f.A X.%./ S I Y J P f.f.f.x i z f.f.f.f.f.f.f.",
"f.f.f.f.f.f.f.f.I I f.f.y s x H z B B m f K <.<.} X.Y H f.I -.w.1.( J 3 y f.f.f.f.f.D ~ I , y f.f.f.f.f.f.f.M z z f.f.f.f.f.f.f.",
"f.f.f.f.f.f.f.f.z i H f.y u P Q L T X.@.&.6.w.i.t.e...A f.H *.1.E H B p f.f.f.f.f.H J } f f.f.f.f.f.f.f.f.f.N Q A g f.m b 8 f.f.",
"f.f.f.f.f.f.f.f.z z M f.f.c m A K L [ -.-.r.p.p.u.;.' g f.m &.<.M f.f.f.f.f.f.f.P J ( O.H y = f.f.f.f.f.f.f.m X.X.I z a 4 2 H f.",
"f.f.f.9 9 m f.f J L N f.f.f.f.f.f.f B M U -.u.s.u.-.z f.f.v &.&.B f.f.f.f.f.f.g P X.e.t.-.{ A - f.f.f.f.f.y P -.r.*.{ g 4 g z f.",
"f.f.H 3 4 i z I X.O.g f.f.f.f.f.f.f.f.f.m o.u.d.u.3.: . . + O.&.,   9 f.f.1 & d ..4.y.u.u.r.} p p f.f.f.V v Y X.4.r.X.v f.f.f.f."
};
