/* XPM */
static char *_9924_0a8f7a5a21fb349ab88c5c2d90728bfe7e1a019889c0958096d1e628c4f0a1d7[] = {
/* columns rows colors chars-per-pixel */
"64 64 134 2 ",
"   c #172C38",
".  c #192E3B",
"X  c #153036",
"o  c #16333B",
"O  c #19333E",
"+  c #1B3543",
"@  c #173942",
"#  c #1B3A45",
"$  c #1E3D4A",
"%  c #203C4C",
"&  c #1A4146",
"*  c #1D434C",
"=  c #1D494F",
"-  c #1E4550",
";  c #1E4B52",
":  c #1C5254",
">  c #1E525B",
",  c #21424F",
"<  c #224453",
"1  c #224B56",
"2  c #284857",
"3  c #254659",
"4  c #29475B",
"5  c #254C5B",
"6  c #284C5E",
"7  c #24535D",
"8  c #28515F",
"9  c #23595F",
"0  c #274F61",
"q  c #2A4E62",
"w  c #265563",
"e  c #2A5265",
"r  c #255A64",
"t  c #295A66",
"y  c #27566A",
"u  c #2C556A",
"i  c #265D69",
"p  c #2B5B6C",
"a  c #31546B",
"s  c #31596E",
"d  c #2F5672",
"f  c #275D72",
"g  c #2D5D71",
"h  c #2C5F78",
"j  c #315670",
"k  c #325D74",
"l  c #355E79",
"z  c #26626A",
"x  c #2A626D",
"c  c #26696F",
"v  c #276371",
"b  c #2D6473",
"n  c #256B74",
"m  c #2C6A74",
"M  c #2D6579",
"N  c #276D78",
"B  c #2D6C7A",
"V  c #316276",
"C  c #306A77",
"Z  c #34647B",
"A  c #38627E",
"S  c #316B7C",
"D  c #267175",
"F  c #287076",
"G  c #277679",
"H  c #2E727C",
"J  c #2C797E",
"K  c #31717E",
"L  c #2E6D81",
"P  c #366681",
"I  c #396683",
"U  c #346C83",
"Y  c #396A86",
"T  c #3C6789",
"R  c #376E88",
"E  c #3A6C8A",
"W  c #2F7482",
"Q  c #2E7C83",
"!  c #2E7C8B",
"~  c #337384",
"^  c #327A85",
"/  c #35748A",
"(  c #39738C",
")  c #347C8B",
"_  c #387C8E",
"`  c #3E6F90",
"'  c #367590",
"]  c #3C7492",
"[  c #367C91",
"{  c #3A7B93",
"}  c #3F769A",
"|  c #3D7D9A",
" . c #417496",
".. c #427599",
"X. c #427B9C",
"o. c #2C8284",
"O. c #2F808E",
"+. c #2F8D8D",
"@. c #308086",
"#. c #33838D",
"$. c #38808C",
"%. c #308B8E",
"&. c #2F8B91",
"*. c #358492",
"=. c #398295",
"-. c #348B94",
";. c #3B8A97",
":. c #368699",
">. c #3B839C",
",. c #368B99",
"<. c #398B9B",
"1. c #329295",
"2. c #35929A",
"3. c #39919E",
"4. c #349A9D",
"5. c #3E85A2",
"6. c #3D8CA3",
"7. c #3F8FA9",
"8. c #3696A1",
"9. c #3A93A2",
"0. c #359CA2",
"q. c #3A9AA6",
"w. c #3E96AB",
"e. c #3D9DAC",
"r. c #3AA3AB",
"t. c #35ABAD",
"y. c #39AAAD",
"u. c #3EA6B0",
"i. c #3EA9B1",
"p. c #4283A4",
"a. c #418AA5",
"s. c #4687AC",
"d. c #428CAA",
"f. c #4291AC",
/* pixels */
"5 w x y u u u u u 6 u h M b n n N m N B v f p p p u u i z z z 8 5 p Y ( / [ =.) _ ) / /  .Y ( ( _ =.) _ | <.4.0.0.4.+.+.+.+.Q J ",
"> m H ~ P S L M g g k V Z S ! / W B U B L U P Z Z g h M Z b f 8 1 y P S ~ ) / ~ / R ~ / R ~ ( ( ( / ( ] ( *.-.&.1.-.-.%.-.+.W c ",
"1 r b b M V g g g g p k k k M W ~ M b Z M Z M g k u u g M b t e , e Z Z S ~ ~ U ~ U K U / / ( ( ( ( E ( ( ) #.^ Q W ! J ~ B b t ",
"r n ~ B M P U S U ~ Z V Z M P L ~ [ { { [ ' ) / ' ~ U L S b p e 2 p R U ~ / ~ ~ R _ { _ $._ =.[ _ ' { { _ :.-.*.) ) ^ #.*.) ^ v ",
": z c V V C B S U S S Z Z Z P / ( ' ( ' / [ [ [ ' ) / L B M p u < V ( ~ ~ / ^ ) $.*.=.*.=.;.<.<.=.=.;.;.3.9.9.<.3.3.3.;.*.) K z ",
"= 9 p f b b M M U S b S U ~ ~ ( ( E ~ ( ( / ( / / ! / ~ S M u u < s ~ ~ ~ _ _ ^ ^ $.^ #.#.$.#.^ ^ ~ / ) _ _ _ _ $./ / ^ ~ ~ S t ",
"1 c K N ~ ^ W / ^ ~ / / U U P ~ U ~ P / R U S U L U L M M k u u , t K A K ~ ~ ^ ^ ^ $.$.=.*.;.*.=.*._ _ _ _ ~ ~ _ ^ R / R ( S w ",
"9 m ) [ ! ! ) [ [ [ ! ) [ [ [ [ / ~ M b f b M f p p p t e u e 0 , s S A A S S S K ~ ) ^ ^ =.*.*.,.-.<.$.*.*.$.*._ _ =.{ { | ( k ",
"y L ' [ [ ! ! [ ! ! ! ! ^ [ L L L M M f p b B L B B M M h g u u 2 p S U Z Z K K K K K $.#.*.;.-.<.*.=.=.[ $._ [ _ / ( ( `  .I j ",
"5 f B N L N L B M v v v h b v v v v v v v v M f f u y u q 5 3 ; , 5 x s a t t a t t p m m K S ^ ^ ~ / ~ S S U U Z I I A T I l a ",
"y p p p i r w w 0 7 5 5 1 1 2 w > $ - $ * # * $ $ % $ < - < 3 - < , % % % # % & O , & # % , < & 8 8 5 6 q p s u u e u e q 6 q q ",
"( R R / ' / { ( R ' >.:.[ 5.5.<.! v v N f M L N f y y f u p r u w s p t e 8 8 2 2 1 1 8 t w e 6 6 S I I Y ( ( Y I E ( Y E I I  .",
"` I I R R / R U P R [ [ [ | ' / L ! ! ! ! ! [ ! W L W U P S M P Z V M k g g p p t e w p k g u 2 < s u a s Z Z S P S A V I A T E ",
"T ` T ` ] [ $.$./ ] { ' ( / U L f B W W / / / [ ) / B U Z P P S Z l k g u u p e q q t s u u 6 2 < p a a a V S Y / Y Y T I I I T ",
" .A I I U ~ ) ) / R P R S S h p 5 w p v M B B L B L S U Z Z Z V g p k k k s p p a a p t u e 2 2 % a a a s Z V A Z A A A A I I I ",
"l I T T ( [ / ' R E E U R ~ S f q e k h Z P P P U P R R ( R P Z U Z Z P l l V V V s s p a e 6 2 < j k a s V A Z k j s A S / E E ",
" .Y ( Y ( ( I P l k k p p p u u q u l P P P ` R ] } ' [ ( ' E I K Y I I A A C x C C C x t t 8 , , e a e p V V V V A l A P / ( ] ",
"Y A Y Z Z Z S Z Z k Z g V k g p q k P T T T ` ' ` E E R R U U P Y K I K K K C m m m x x s x 9 1 2 p s k V V V Z V Z A A Y Y Y Y ",
"K I Y Z Z V V V k k p d s g p u e d h P h P P P Y P l l l k k k Z C C C C x c m c x x z x t z 7 1 x x V V k V V Z k l l l P A A ",
"s s s e u u q u 6 6 q q e q 0 q 3 q q e y d y d d u 0 q u u p p V x x x x x x x t x t x z t 9 9 < r r 7 8 8 6 e a 6 q u u k k u ",
"< % < < < 3 4 4 < < < % % * $ $ $ $ % - $ % % 3 < < < < < 5 1 1 , , & , , , , , , , , , , , , , & * , , & , % % % % % % % 3 4 4 ",
"% < 6 < < < 0 0 5 6 q y e 3 1 2 - % * $ $ $ < % % < , , , : 1 < z z 7 9 8 8 9 9 9 9 9 9 z 9 9 z z 9 z z r 9 t e 8 8 e e e u e 0 ",
"5 w p Z S U P S B M L M M b b x h u w y w w f f p v p z c x b z 9 K K K $.$.$.^ K K K ;.;.3.3.1.#.$.1.-.-.$.@.^ / K ~ Y _ ( ' U ",
"1 8 c b B S S U U U U U ^ / / [ / ^ / [ / U ~ ) Q #.#.Q ^ H B c 1 x x x x x s x t t x K H C K H H F H J H H H C C V b x V b x w ",
"= 7 z b K B S ~ U U U R _ / / { =.[ [ [ [ [ *.-.&.&.*.O.#.#.O.J 9 ^ H W ^ ^ ^ ~ ^ ~ ^ J K H ^ @.@.@.^ ^ ^ J K F F K K C F m z 9 ",
"= 9 c H K K K K ~ U ~ S U R / { [ | | [ ' ) ) ,.&.&.+.O.^ K H m 7 S H S H ~ ~ ) $.^ #.#.^ ^ ^ @.$.@.@.J K m C m x x x x x x x 9 ",
"1 7 z x x C V V V V V A I S U ~ U / / / ~ / U ^ ~ H H B K K H B 9 J ^ ) ^ / ~ S K ~ J ^ ^ ) $.#.$.J @.@.^ $.^ K K C C K K C x 9 ",
"* 9 x x x V x b V V Z C Z S Y U R / ) [ ' [ ) [ #.) *.^ ) ~ B m 1 B m K Z Y K S K C S S K C C C C C C K m m V x C C V C K C C 8 ",
"1 c m B S Z S P S S U K I Y ( U _ ( [ | >.>.:.:.,.-.#.^ *.) ! H w W W L K ~ U ~ S V b V C C V b C C H K B S S C C V m C C J K t ",
"1 x Z Z Z b S ~ A A S A Z U U B S U R U L R / ) O.-.O.! ! ! O.J 7 ) / ) _ ~ ~ S S M S C C S V b C C C x m b C S V C C B C x V 8 ",
"& 1 8 2 < < < < 1 < < , < 2 5 5 w w q q y u r i z z z v D D c z 9 v z t i i p p r w y r p t u w e t 9 t r r t w 7 5 8 1 1 7 1 , ",
"O # O O + O O @ O O % # % % * * # p y q f g m v N G J G D G D D N r w r w 9 7 2 5 < > 7 5 w 2 2 , # O % @ & # O O o o O O O & & ",
"y e u e e u e e u y e w y e y w - g ] { 6.f.i.r.r.r.t.y.y.r.0.0.q.,.=.:.,.-.[ | [ =.:.8.w.6.5.' f f h h h B v f u e y u y w z i ",
"m S Z P U U B S M M m M Z g h w - h ] ] | 6.q.8.0.0.0.8.8.8.8.q.8.9.6.6.5.,.:.:.| [ :.,.5.5.| R f f B L / ) ' / R L U U U B B v ",
"L S S S S M Z C M S B M S h g q 1 M [ R [ >.3.;.<.-.,.,.,.<.<.9.6.;.>.=.>.>.=.{ / / ) / ! R L N y r M M U U U U U U M B U S S S ",
"' ~ U ~ B M m b B / ' / / U M e > L 9.>.<.9.9.q.8.q.q.q.e.q.r.f.e.w.7.5.5.5.5.5.5.>.| / / R P p 5 q u g M S U U L U [ [ [ =._ ( ",
"[ { ) ) ^ W H W W ^ ^ ~ ^ ^ L f ; B 6.:.9.q.e.q.r.r.u.u.r.i.f.r.e.w.a.>.5.a.5.5.5.| | ( [ ( U g 1 0 u M Z U L U U U { { { _ ( E ",
") ) ! ! #.%.o.H H H B W H W m 7 $ p ! *.*.2.3.<.9.9.<.<.<.9.3.3.<.=.=.{ { { | | | ] / [ { | U h 5 w g M B L U U U ~ / ~ ( / Y E ",
"S B B B C m H F H B F H B H n w ; z #.*.*.;.*.*.<.<.3.6.>.;.6.6.a.a.>.| 5.5.>.d.5.5.5.5.{ | R L y w f L U R U U U / U P S V Z Z ",
"~ ~ S K K H C F F B H H H W F r ; n ,.) *.-.-.3.<.;.a.f.d.f.f.f.f.a.d.a.d.d.s.a.5.>.5.5.5.5.{ L w y g Z S U U M S S I Z A A Z P ",
"U U U ^ B S B m B B F B m H F z > m <.,.=.;.:.7.6.p.5.p.>.X.s.p.s.p.p.s.5.5.| a.| | | { | | R l q q d h M l M U U U T P P T l P ",
"Z V u g p g p v x z t z x z i i w N =.' [ ' [ ] } T } ' | ..| >.>.X.X.| | 5.| | | { ' R E T P u 3 q u k h L R R / T P l P P P Z ",
"+ + + + @ @ + o o o X X X o o @ @ & $ $ + $ $ + % + + @ + $ + $ $ $ $ % # $ $ # $ $ # $ $ $ $ % $ % + $ + O O @ @ . + +   + + . ",
"2 4 3 2 5 8 8 w 5 7 e e y p x x f y k u d u u e u u u u 0 u w q 3 3 4 3 0 0 y 0 q y y e q q q q q q e u e p e y 0 0 3 3 3 4 3 - ",
"q P U R _ { { ( ~ Y ~ { p.p.p.p.5.| >.X.X.| } } X.} } ' }  .{ R 3 h T P U ' ( P U R / ( R R I P P T ` E E U U U R U U U R P P h ",
"< k S Z V Z V k k V Z Z A S I A I I I T T T E P R P P P P P P u 4 P ' ' | | | ] E ' T I P P A I T T T R E T T P P P S P R R P u ",
"% u V g k l Z l Z Z Z l V l V l A Z l l A Z l A S Z P h P k l e < g P U U / ( ' ( E I E I I I T I  .E E E E T P P S U U P P M e ",
"< g k V Z Z A S I K U ~ U S ~ I A I P A Z l k Z k Z Z P Z S g y < g M M L L U / ] } ] ` ] ` ] .. .....` ` ] E R ` R R R U U Z e ",
"< g Z S Z U ~ ~ ~ ~ / ^ / ^ ~ ( ( Y I I A A A A S U U / / R L u 4 g P L U ~ R ( ( /  . .( E (  ...X.X... .X.X.( ( ] E ( R ] U w ",
"< M Z S K ^ ~ ~ ^ ^ ^ ~ ^ ^ ^ K ^ ~ U S A A l S P S U U R R P e 0 d S U U / T T Y I Z I I Z A ( E ( ] ] ] } ( ] E E E Y T R Z u ",
"< V B U K J ^ K S C Z H K K K ~ ^ ~ ~ A Z l Z A M Z P P R T T j 0 P ` E U I I I Y Y l A A A A S S S P ( E T T Y Y I I A Z P Z q ",
"< v p m m m F C m p x V s V C C B S S C Z A Z P U U L P R ` R j y T E E T T I T A A l l l A A A P Z V Z l Z Z Z l V k k V k p 6 ",
"= 8 8 7 7 7 9 9 9 7 8 r t 9 r x c z t t e p t e u e u u u u w 6 q q e q u a q q q 0 q q q a q q q q q u q q e e e 6 0 6 e e 8 5 ",
"& = & & & O O & , # # # , & , O o O @ # # + % O + $ # % % % $ , % $ $ + O O .   . .   . . . . .   O . + + + % + # % % $ & * * * ",
"m B H n F x x x x p p x V C x 9 < 1 t t p x p s 0 w u k u t p b p p u u p a e a e e q q a q q 2 $ 2 e u a u k V V V C C m x c z ",
"@.J Q ^ H K H H C x S K K K C z = 7 z m m C C V V k V k k V S C K B S S S V V V V V l j V V s 6 $ q g S P I ~ ~ ~ ^ ^ #.) ^ _ ^ ",
"2.-.-.#.) %.-.$.$.#.) _ ) ^ K x = 9 D H H K K K S C K A C C K K ^ ~ K R ^ S A S Z V k A V k s 8 , 5 C Z U ~ ~ _ #.-.#.%.#.$.;.#.",
"%.%.@.) @.#.^ ) ^ K ^ K K C x 7 & : 9 x x m K C C C C K K K ~ K K K ~ K K K A A A s s s s a 8 , # 2 e a s V V K K K K ^ ~ ^ ) #.",
";.-.<.*.$.*.^ ^ ~ ^ $.#.) K H z * 1 z F C H C C C C C K ~ ( ) ) ^ ~ ~ ~ K A V V l l V s s s 8 2 + 2 t V V K S ~ ^ ^ ^ ) #.$.$.2.",
"#.@.$.#.) @.^ K K K / ^ ^ ^ H 9 & 1 c m H C K C A K A K ~ ^ J K S S C C A V V k k V k l V k s 2 # 5 s A S ( ~ / ) ) #.#.#.#.#.-.",
"<.;.*.) *.*.) ^ ~ ^ ~ ^ ^ J H c 1 7 c K K K K R _ ~ ~ ( ~ ) ^ K C C Z Z Z V s V l V k l a k g 6 < w S / [ [ [ *.<.*.$.%.1.2.1.4.",
"-.1.1.2.1.1.-.! ~ H K S K J H 9 & 1 p x C S S K K A C V S S S S C V V V V V V s j a s a a a u 4 $ e Z S S U S ~ / #.#.@.#.1.1.1.",
"J J J H J G H N b v x x x c t 1 # 1 6 8 q 6 8 8 8 2 6 8 8 t 8 8 8 e q q q e 8 q q q 0 6 0 6 3 < % q w u p g c v b v F o.o.o.o.o.",
": : : : ; = ; = ; & % , & , O % + + + + % # O % % O % # & , , , , + O + + + O % + + + # + + $ + $ $ $ % $ - ; = = 1 = : : : : : "
};
