/* XPM */
static char *d504546ea549424ca1c3d68110b29e3czYSqZlRpufYrvwQg[] = {
/* columns rows colors chars-per-pixel */
"64 64 256 2 ",
"   c black",
".  c #1F170B",
"X  c #170F07",
"o  c #4B4B4B",
"O  c white",
"+  c #1B1B1B",
"@  c #131313",
"#  c #0B0B0B",
"$  c #070707",
"%  c #2F371F",
"&  c #232B0F",
"*  c #171F07",
"=  c #0F1700",
"-  c #4F3B2B",
";  c #473323",
":  c #3F2B1B",
">  c #FFB7B7",
",  c #F7ABAB",
"<  c #F3A3A3",
"1  c #EB9797",
"2  c #E78F8F",
"3  c #DF8787",
"4  c #DB7B7B",
"5  c #D37373",
"6  c #CB6B6B",
"7  c #C76363",
"8  c #BF5B5B",
"9  c #BB5757",
"0  c #B34F4F",
"q  c #AF4747",
"w  c #A73F3F",
"e  c #A33B3B",
"r  c #9B3333",
"t  c #972F2F",
"y  c #8F2B2B",
"u  c #8B2323",
"i  c #831F1F",
"p  c #7F1B1B",
"a  c #771717",
"s  c #731313",
"d  c #6B0F0F",
"f  c #670B0B",
"g  c #5F0707",
"h  c #5B0707",
"j  c #530707",
"k  c #4F0000",
"l  c #470000",
"z  c #430000",
"x  c #FFEBDF",
"c  c #FFE3D3",
"v  c #FFDBC7",
"b  c #FFD3BB",
"n  c #FFCFB3",
"m  c #FFC7A7",
"M  c #FFBF9B",
"N  c #FFBB93",
"B  c #FFB383",
"V  c #F7AB7B",
"C  c #EFA373",
"Z  c #E79B6B",
"A  c #DF9363",
"S  c #D78B5B",
"D  c #CF8353",
"F  c #CB7F4F",
"G  c #BF7B4B",
"H  c #B37347",
"J  c #AB6F43",
"K  c #A36B3F",
"L  c #9B633B",
"P  c #8F5F37",
"I  c #875733",
"U  c #7F532F",
"Y  c #774F2B",
"T  c #6B4727",
"R  c #5F4323",
"E  c #533F1F",
"W  c #4B371B",
"Q  c #3F2F17",
"!  c #332B13",
"~  c #2B230F",
"^  c #EFEFEF",
"/  c #E7E7E7",
"(  c #DFDFDF",
")  c gray86",
"_  c LightGray",
"`  c #CBCBCB",
"'  c gray78",
"]  c gray75",
"[  c #B7B7B7",
"{  c gray70",
"}  c gray67",
"|  c #A7A7A7",
" . c #9F9F9F",
".. c #979797",
"X. c #939393",
"o. c #8B8B8B",
"O. c #838383",
"+. c gray50",
"@. c #777777",
"#. c #6F6F6F",
"$. c gray42",
"%. c gray39",
"&. c #5B5B5B",
"*. c gray34",
"=. c gray31",
"-. c gray28",
";. c #434343",
":. c gray23",
">. c #373737",
",. c #2F2F2F",
"<. c #272727",
"1. c #232323",
"2. c #77FF6F",
"3. c #6FEF67",
"4. c #67DF5F",
"5. c #5FCF57",
"6. c #5BBF4F",
"7. c #53AF47",
"8. c #4B9F3F",
"9. c #439337",
"0. c #3F832F",
"q. c #37732B",
"w. c #2F6323",
"e. c #27531B",
"r. c #1F4317",
"t. c #17330F",
"y. c #13230B",
"u. c #0B1707",
"i. c #BFA78F",
"p. c #B79F87",
"a. c #AF977F",
"s. c #A78F77",
"d. c #9F876F",
"f. c #9B7F6B",
"g. c #937B63",
"h. c #8B735B",
"j. c #836B57",
"k. c #7B634F",
"l. c #775F4B",
"z. c #6F5743",
"x. c #67533F",
"c. c #5F4B37",
"v. c #574333",
"b. c #533F2F",
"n. c #9F8363",
"m. c #8F7753",
"M. c #836B4B",
"N. c #775F3F",
"B. c #675333",
"V. c #5B472B",
"C. c #4F3B23",
"Z. c #43331B",
"A. c #7B7F63",
"S. c #6F7357",
"D. c #676B4F",
"F. c #5B6347",
"G. c #53573B",
"H. c #474F33",
"J. c #3F472B",
"K. c #373F27",
"L. c #FFFF73",
"P. c #EBDB57",
"I. c #D7BB43",
"U. c #C39B2F",
"Y. c #AF7B1F",
"T. c #9B5B13",
"R. c #874307",
"E. c #732B00",
"W. c white",
"Q. c #FFDBDB",
"!. c #FFBBBB",
"~. c #FF9B9B",
"^. c #FF7B7B",
"/. c #FF5F5F",
"(. c #FF3F3F",
"). c #FF1F1F",
"_. c red",
"`. c #EF0000",
"'. c #E30000",
"]. c #D70000",
"[. c #CB0000",
"{. c #BF0000",
"}. c #B30000",
"|. c #A70000",
" X c #9B0000",
".X c #8B0000",
"XX c #7F0000",
"oX c #730000",
"OX c #670000",
"+X c #5B0000",
"@X c #4F0000",
"#X c #430000",
"$X c #E7E7FF",
"%X c #C7C7FF",
"&X c #ABABFF",
"*X c #8F8FFF",
"=X c #7373FF",
"-X c #5353FF",
";X c #3737FF",
":X c #1B1BFF",
">X c blue",
",X c #0000E3",
"<X c #0000CB",
"1X c #0000B3",
"2X c #00009B",
"3X c #000083",
"4X c #00006B",
"5X c #000053",
"6X c white",
"7X c #FFEBDB",
"8X c #FFD7BB",
"9X c #FFC79B",
"0X c #FFB37B",
"qX c #FFA35B",
"wX c #FF8F3B",
"eX c #FF7F1B",
"rX c #F37317",
"tX c #EB6F0F",
"yX c #DF670F",
"uX c #D75F0B",
"iX c #CB5707",
"pX c #C34F00",
"aX c #B74700",
"sX c #AF4300",
"dX c white",
"fX c #FFFFD7",
"gX c #FFFFB3",
"hX c #FFFF8F",
"jX c #FFFF6B",
"kX c #FFFF47",
"lX c #FFFF23",
"zX c yellow",
"xX c #A73F00",
"cX c #9F3700",
"vX c #932F00",
"bX c #872300",
"nX c #4F3B27",
"mX c #432F1B",
"MX c #372313",
"NX c #2F1B0B",
"BX c #000053",
"VX c #000047",
"CX c #00003B",
"ZX c #00002F",
"AX c #000023",
"SX c #000017",
"DX c #00000B",
"FX c cyan",
"GX c #FF9F43",
"HX c #FFE74B",
"JX c #FF7BFF",
"KX c magenta",
"LX c #CF00CF",
"PX c #9F009B",
"IX c #6F006B",
"UX c #A76B6B",
/* pixels */
"IXIXIX<.<.<.<.<.IXIXIXIXIX<.<.<.<.<.<.<.IXIXIXIXIXIXIX<.<.<.<.<.<.<.<.<.IXIXIXIXIXIXIX<.<.<.<.<.<.<.<.<.<.<.<.<.IXIXIXIXIXIXIXIX",
"R IXIXIX<.<.<.IXIXIXIXIXIXIX<.<.<.<.<.IXIXPXT T T R IXIX<.<.<.<.<.<.IXIXIXIXIXIXIXIXIXIX<.<.<.<.<.<.<.<.<.IXIXIXIXIXIXT T T T T ",
"T R IXIXIXIX<.IXIXIXIXIXIXIXIX<.<.IXIXIXPXT T R R R R IXIXIX<.<.IXIXIXIXIXIXIXIXIXIXIXIXIX<.<.<.<.<.<.<.IXIXIXIXIXIXT T T T T T ",
"R R R IXIXIXIXIXIXIXIXIXIXIX<.IXIXIXIXIXPXT R IXIXIXR IXIXIXIXIXIXIXIXIXIXIXIXIXIXIXIXIXIXIXIXIXIXIXIXIXIXIXIXIXIXT T T T E E IX",
"IXR W IXIXIXIXIXIXIXIXIXIXIXIXIXIXIXIXIXIXIXIXIXIXIXT IXIXIXR R R IXIXIXIXIXIXIXIXIXR R T R R R E E W W IXIXIXIXIXT T T Q IXE IX",
"IXR W IXIXIXIXIXIXIXIXIXIXIXIXIXIXIXIXIXIXIXIXIXIXIXE IXIXR T T T R IXIXIXIXIXW W R T T T T T R R R W R W IXIXIXIXIXT R Q IXE IX",
"IXIXR IXIXIXIXIXIXIXIXIXT IXIXIXIXIXIXIXIXIXIXIXIXIXQ IXR T T E E R IXIXIXQ W T T Y T T T R E E Q E Q Q R W IXIXIXIXT R Q IXE IX",
"IXIXR IXIXIXIXIXR Y IXT R IXIXIXIXIXIXIXIXIXIXIXIXIXW IXT R E IXIXE IXIXQ E T Y Y Y Y Y T W E W <.E IXIXR Q W IXIXIXT R Q IXE IX",
"IXIXR IXIXIXIXR Y Y T R E IXIXIXIXIXIXIXIXIXIXIXIXIXR IXR R IXIXIXW IXIXQ T Y Y U U Y Y T W <.W IXE IXIXE IXW IXIXIXR E Q IXE IX",
"IXIXR IXIXIXIXY Y T R R E IXIXIXIXIXIXIXIXIXIXIXIXIXE IXR R IXIXIXQ IXQ T E W U U Y Y T R Q IXQ IXE IXIXE IXW IXIXIXR E Q IXE IX",
"IXIXQ IXIXIXPXY T R R E W IXIXIXIXR R R E W IXIXIXIXW IXW IXIXIXIXQ IXQ E T IXU Y T T R E Q IXIXIXIXIXE E IXW Q IXIXIXE Q IXIXIX",
"IXIXQ IXIXIXPXY R R W W W IXIXIXR T T T T R IXIXIXIXIXIXW IXIXIXIXQ IXQ E W IXU T T R E E E Q IXIXIXE E E E W Q IXIXIXE Q IXIXIX",
"IXIXQ IXIXPXPXIXR W Q IXQ IXIXIXT T R IXR T IXIXIXIXIXIXQ IXIXIXIXIXIXIXE W IXT T R E IXIXE E Q IXIXE W W E W Q IXIXIXE Q IXIXIX",
"IXIXQ IXPXIXT T T R Q IXQ IXIXR T R IXIXIXR IXIXIX<.<.IXIXIXIXIXIXIXIXIXE W IXT R E IXIXIXIXE Q R T W Q Q IXW Q IXIXIXIXIXIXIXIX",
"IXIXIXIXIXT T R IXIXIXIX! IXIXR T R IXIXIXR IXIXIXIXIXIXIXIXIXIXIXIXIXIXW W IXT IXE IXIXIXIXT R T E Q IXIXIXW Q IXIXIXIXIXIXIXIX",
"IXIXIXIXIXT R IXIXPXPXIX! <.IXR T R IXIXIXE IXIXIXIXW W W IXIXIXIXIXIXIXW IXIXT IXE IXW E T T T E Q IXIXIXIXIXW Q IXIXIXIXIXIXIX",
"IXIXIXIXIXT IXIXPXIXIXIX! <.IXT IXE IXIXIXW IXIXIXR T T R R W IXIXIXIXIXW IXIXT IXE W T T T T T T E Q IXIXIXIXW W Q IXIXIXIXIXIX",
"IXIXIXIXIXT IXPXIXIXIX<.! <.IXT IXW IXIXIXQ IXIXT U U U U T R IXIXIXIXIXQ IXIXIXIXE T T T T E E E E Q IXIXIXIXIXW Q Q IXIXIXIXIX",
"IXIXIXIXIXT IXPXIXIXIXIX! IXIXIXIXIXIXIXIXIXIXIXU T R R R R T E IXIXIXIXQ IXIXIXIXE T T E E ! E ! E Q IXIXIXIXIXIXQ IX<.IXIXIXIX",
"IXIXIXIXIXIXIXIXIXIXIXIX! IXIXIXIXIXIXIXIXIXIXIXR IXPXPXIXPXR E W Q IXIXQ IXIXIXE E T E W ! IXE IXE ! IXIXIXIXIXIXQ IXIXIXIXIXIX",
"IXIXIXIXIXIXIXIXIXIXIXIXIXIXIXIXIXIXIXIXIXIXIXT PXPXPXIXIXE IXE E W IXIXQ IXIXIXIXE T E ! IXIXIXIXE ! IXIXIXIXIXIXW IXIXIXIXIXIX",
"T IXIXIXIXIXIXIXIXIXIXIXIXIXIXIXIXIXIXIXIXIXT Y IXPXIXT E E Q E Q Q Q IXW IXIXIXIXE IXE ! IXIXIXIX! IXIXIXIXIXIXIXW IXIXIXY Y T ",
"T T R IXIXIXIXIXIXIXIXIXIX<.<.IXIXIXIXIXIXT Y T T T T R Q IXIXQ IXQ Q W E W IXIXIXE IXW ! IXIXIXIXIXIXIXIXIXIXIXW E IXIXY Y T T ",
"R R T W IXIXIXIXIXIXIXIXIX<.<.R R Q IXIXIXT Y IXIXT E E IXIXIXIXQ Q E R T R IXIXIXIXIXQ IXIXIXIXIXIXIXIXIXIXIX<.W R T T Y Y T T ",
"R E E W IXIXIXIXIXIXIXIXIX<.E R E W IXIXIXT Y IXIXT E Q IXIXIXQ Q W W W E E E IXIXIXIXQ IXIXIXIXIXIXIXIXIX<.IXIXR T Y Y IXIXIXR ",
"IXIXW Q Q IXIXIXIXIXIXIX<.IXT IXIXW IXIXIXT Y T T E Q Q IXIXE W W Q Q E E W E E Q IXIXIXIXIXIXIXIXIXIX<.<.IXIXIXT Y Y PXIXIXIXIX",
"IXIXIXW W IXIXIXIXIXIXW T T T IXIXQ Q IXIXT T IXIXIXIXIXIXIXE W Q W IXIXIXE E W Q Q IXIXIXIXIXIXIXIXIX<.<.IXIXIXY Y PXPXIXIXIXIX",
"IXIXIXE E IXIXIXIXIXW E E R IXIXIXQ IXIXIXIXT IXIXIXT T T E Q Q W E E IXPXE IXE W Q Q IXIXIXIXIXIXIXIXIXIXIXIXY T Y Y Y Y T IXIX",
"IXIXIXR R IXIXIXIXIXW IXIXR IXIXIXIXIXIXIXIXT IXPXPXPXPXPXE Q IXIXW E IXIXE IXE E W Q IXIXIXIXIXR R R IXIXIXIXT Y R R R Y Y T IX",
"IXIXIXT R IXIXIXIXIXIXIXIXW IXIXIXIXIXIXIXIXIXPXPXPXIXIXIXE Q IXPXIXQ IXIXE IXE E W Q IXIXIXIXR R R IXIXIXIXPXT R IXPXPXR T T IX",
"IXIXIXR R IXIXIXIXIXIXIXIXQ W W W Q IXIXIXIXIXPXPXIXIXIXR E Q IXIXIXQ IXIXE IXE E W Q IXIXW IXR R IXIXIXIXIXPXT IXPXIXIXPXPXT R ",
"IXIXIXE E IXIXIXIXIXIXIXPXPXIXIXIXE Q Q IXIXPXIXR T T E Q E IXPXIXIXQ IXIXIXIXE E W Q IXIXIXIXR IXIXIXIXIXIXPXT IXPXIXIXPXPXR R ",
"IXIXIXW W IXIXIXIXIXIXPXPXPXR R R IXW IXIXIXIXR T R E W E IXPXIXIXIXIXIXIXIXIXE E W Q IXIXIXIXW IXIXIXIXIXIXIXT IXPXIXIXIXIXE E ",
"IXIXIXE E IXIXIXIXIXPXPXPXR R R R R IXIXIXIXIXT R Q IXW E W PXIXIXIXIXIXIXIXIXE E W Q IXIXIXIXW IXIXIXIXIXIXIXT IXPXIXIXIXW W W ",
"IXIXIXT R IXIXIXIXIXPXPXR R W W IXW IXIXIXIXIXT W IXIXIXW W IXIXIXIXIXIXIXIXIXE Q W Q IXIXIXIXW IXIXIXIXIXIXIXR IXIXIXIXIXW W W ",
"IXIXIXR W IXIXIXIXIXIXPXIXR W W IXW IXIXIXIXIXW IXIXIXIXW Q IXIXIXIXIXIXIXIXIXE Q IXIXIXIXIXIXW IXIXIXIXIXIXIXR IXIXIXIXIXIXE E ",
"IXIXIXW W IXIXIXIXIXIXIXIXW W W IXW IXIXIXIXIXW IXIXIXIXQ Q IXIXIXIXIXIXIXIXIXE Q IXIXIXIXIXIXW IXIXIXIXIXIXIXE IXIXIXIXIXIXR R ",
"IXIXIXW IXIXIXIXIXIXIXIXIXW W W IXW IXIXIXIXIXR <.IXIXIXQ Q IXIXIXIXIXIXIXIXIXIXQ IXIXIXIXIXIXW IXIXIXIXIXIXIXE <.IXIXIXIXIXT T ",
"IXIXIXIXIXIXIXIXIXIXIXIXIXIXW IXIXW IXIXIXIXIXW <.IXIXIXQ Q IXIXIXIXIXIXIXIXIXIXQ IXIXIXIXIXIXW IXIXIXIXIXIXIXE IX<.IXIXIXIXT T ",
"IXIXIXIXIXIXIXIXIXIXIXIXIXIXW IXIXIXIXIXIXIXIXQ IXIXIXIXIXQ <.IXIXIXIXIXIXIXIXIXIXQ IXIXIXIXIXW IXIXIXIXIXIXIXIXIXIX<.<.<.<.R R ",
"IXIXIXIXIXIXIXIXIXIXIXIXIXIXIXIXIXIXIXIXIXIXIXQ IXIXIXIXIX! <.IXIXIXIXIXIXIXIXIXIXQ IXIXIXIXIXW W R R IXIXIXIXIXIXIXIXIX<.<.E W ",
"IXIXIXIXT T IXIXIXIXIXIXIXIXIXIXIXIXIXIXIXIXIX! IXIXIXIXIX! <.IXIXIXIXIXIXIXIXIXIXIXIXIXIXIXW R R T T R R IXIXIXIXIXIXIXIX<.W W ",
"IXIXIXT R R E IXIXIXIXIXIXIXT T E E IXIXIXIXIX! IXIXIXIXIXQ <.IXIXIXIXIXIXIXIXIXIXIXIXIXIXIXIXR T R E IXE IXIXIXIXIXIXIXIXIXQ Q ",
"IXIXIXR IXIXE IXIXIXIXIXIXT T T E E IXIXIXIXIXQ IXIXIXIXIXW IXIXIXIXIXIXIXIXIXIXIXIXIXIXIXIXPXT T E W <.W IXIXIXIXIXIXIXIXIXQ ! ",
"IXIXIXE IXIXE IXIXIXIXT T T R R E W IXIXIXIX<.W IXE E E E R IXIXIXIXIXIXIXIXIXIXIXIXIXIXIXIXPXE IXW IX<.IXIXIXIXIXIXIXIXIXIX! <.",
"IXIXIXE IXIXE IXIXIXIXR IXT IXIXE Q IXIXIXIX<.W E T T R R T PXPXIXIXIXIXIXIXIXIXIXIXIXIXIXT PXE IXW <.<.IXIXIXIXIXIXIXIXIXIX! <.",
"IXIXIXW IXIXIXIXIXIXIXE IXIXIXIXIXQ IXIXIXIXIXE T U Y T R T IXPXPXT W IXIXIXIXIXIXIXIXIXT T IXW IXIX<.IXIXW R PXIXIXIXIXIXIX! <.",
"IXIXIXW IXIXIXIXIXIXIXIXIXIXIXIXIXPXQ IXIXIXIXR U Y Y T T T IXPXIXR T W IXIXIXIXIXIXIXT T T IXW IXIXIXW W R T Y IXIXIXIXIXIXIXIX",
"IXIXIXQ IXIXIXIXIXIXIXIXIXIXIXIXPXIXQ IXIXIXIXT Y T T R T T T IXPXIXR R IXIXIXIXIXIXT T T T T T IXW W R R T Y R IXIXIXIXIXIXIXQ ",
"IXIXIXQ IXIXIXIXIXIXIXIXIXIXIXIXIXQ IXIXIXIXT T R E T E R T T T IXPXIXR W IXIXIXIXIXT T R R R R T IXIXY Y Y R W IXIXIXIXIXIXIXQ ",
"IX<.IX! IXIXIXIXIXIXIXIXIXIXIXIX<.Q IXIXIXIXIXT E R R W E R R R IXIXIXR W IXIXIXIXT T R R IXIXIXIXIXIXR W IXR W IXIXIXIXIXIXIXQ ",
"<.<.<.! IX<.IXIXIXIXIXIXIXIXIXIXIXQ IXIXW T T T T R W R E E W W R T IXR W IXIXIXIXT R IXE IXIXIXIXIXIXR W IXR W IXIXIXIXIXIXIXIX",
"IX<.<.<.<.IXIXIXIXIXIXIXIXIXIXIXIXQ ! W T E E W R W R R W W W W W R R R R W IXIXIXE IXIXW IXW R R W Q R IXIXIXW IXIXE R W IXIXQ ",
"IX<.<.! IXIXIXIXIXIXIXIXIXIXIXIXIXQ W T E E Q ! W W R W W IXIXIXIXIXE E R R W Q IXW IXIXW IXR E E W Q R IXIXIXW IXE R R R W IXQ ",
"IX<.IXIXIXIXIXIXIXIXT T T T T IXIXIXW R E Q IX! Q IXW W Q IXIXIXIXIXW W W W E W IXQ IXIXW IXIXW IXW Q R IXIXIXQ IXIXIXE E W IXIX",
"IXIXIXIXIXIXIXPXPXR T E E E E T IXIXW R Q IXIX! Q IXW W Q IXIXIXIXIXQ Q ! ! E W IXQ IXIXQ IXIXW IXQ Q IXIXIXIXQ IXIXIXW W W IXIX",
"IXIXIXIXIXIXIXPXPXT IXIXIXIXE E IXIXW R Q IXIXIXQ IXIXIXQ IXIXIXIXIX! Q ! IXW Q IXIXIXIXQ IXIXQ IXW W IXIXIXIXQ IXIXIXW W W IXIX",
"IXIXIXIXIXIXIXPXIXE IXIXIXIXIXE IXIX! IXIXIXIXIXQ IXIXIXQ IXIXIXIXIX! ! IXIXQ ! IXIXIXIXQ IXIXQ IXE E Q IXIXIXQ IXIXIXIXR E E IX",
"IXIXIXIXIXIXIXE E Q E E IXIXIXW IXIX! IXIXIXIXIXQ IXIXIXQ IXIXIXIXIXIX! IXIXQ ! IXIXIXIXQ IXIXIXIXR IXR Q IXIXQ IXIXIXR U T T E ",
"IXIXIXIXE T T T IXIXIXIXIXIXIXW IXIX! IXIXIXIXIXQ Q Q Q Q IXIXIXIXIXIX! IXIXQ ! IXIXIXIXQ IXIXIXIXE IXIXQ Q IXQ IXIXR U T R R IX",
"Q IXIXIXT T R R T IXIXIXIXQ Q Q Q Q Q IXIXIXIXQ W W W W W W Q Q Q Q Q ! Q IXQ ! IXIXIXIXIXIXIXIXIXQ Q Q Q Q Q Q Q Q T U R IXQ Q ",
"Q Q Q IXT IXIXIXE IXIXIXQ W W W W W W W W Q Q Q R IXR R R R E E E W W W Q Q Q ! IXIXIXIXIXIXIXW W W E E E E R R R T U R W IXIXQ ",
"Q Q Q Q R IXIXIXW Q Q Q W R R T T R R R W W W W W R T Y U Y T T R R R R R E E W W W W Q Q Q Q W W W E R T T T T T T R W Q Q Q Q ",
"%.-.>.Q Q Q Q Q Q Q Q Q Q Q Q Q Q Q >.-.%.%.*.>.Q Q Q Q Q Q Q Q Q Q Q Q Q Q Q Q Q Q Q >.-.*.*.-.>.Q Q Q Q Q Q Q Q Q Q Q Q >.-.%."
};
